#!OML:ASF Y:\EmotionMaleHayes\Project 1\Capture day 1\Session 1\Male1.ASF
:FULLY-SPECIFIED
:DEGREES
1708
root 38.4158 16.8323 17.3667 240.827 -81.8345 474.317
lowerback 3.38142 2.775 -8.00997
upperback 1.10385 3.29385 -3.07638
thorax -1.02756 1.60502 1.15308
lowerneck -21.7339 -0.41385 1.57583
upperneck 26.4328 -2.99177 4.79748
head 12.461 -0.630295 1.02833
rclavicle -9.3553e-015 3.1408e-014
rhumerus -31.7653 10.9311 -89.1682
rradius 41.7467
rwrist -5.17889
rhand -13.722 -28.7524
rfingers 7.12502
rthumb 12.3972 -58.3648
lclavicle -9.3553e-015 3.1408e-014
lhumerus -31.3212 3.21178 75.7696
lradius 24.6389
lwrist -14.05
lhand -15.3593 -21.9038
lfingers 7.12502
lthumb 10.8182 7.79762
rfemur 11.6474 8.45544 12.5737
rtibia 47.5782
rfoot 21.1138 3.25652
rtoes 36.7831
lfemur -1.16152 3.30619 -26.9552
ltibia 12.269
lfoot -9.25419 3.10345
ltoes 4.29859
1709
root 38.3124 16.8371 17.3971 239.285 -81.5365 475.647
lowerback 3.5485 2.79394 -8.22963
upperback 1.15541 3.2892 -3.14419
thorax -1.0756 1.60028 1.19709
lowerneck -21.8971 -0.321376 1.80083
upperneck 26.5243 -2.89914 4.62405
head 12.5223 -0.584911 0.941057
rclavicle -2.46804e-014 5.1684e-015
rhumerus -32.1159 10.6024 -89.2013
rradius 41.2772
rwrist -5.08678
rhand -9.81485 -33.8092
rfingers 7.12502
rthumb 16.1619 -63.1554
lclavicle -2.46804e-014 5.1684e-015
lhumerus -31.0998 1.81466 76.5971
lradius 25.5458
lwrist -13.023
lhand -15.4603 -21.3942
lfingers 7.12502
lthumb 10.7207 8.31229
rfemur 10.5337 7.93082 12.0532
rtibia 49.4144
rfoot 19.0582 2.77967
rtoes 33.1245
lfemur -0.249217 3.65695 -27.1563
ltibia 11.754
lfoot -9.44238 2.99899
ltoes 4.33547
1710
root 38.2128 16.8385 17.4343 238.217 -81.1918 476.685
lowerback 3.56034 2.75358 -8.49558
upperback 1.16559 3.22034 -3.18614
thorax -1.07802 1.56389 1.30318
lowerneck -22.1332 -0.215933 1.99649
upperneck 26.7137 -2.76398 4.3762
head 12.6357 -0.530984 0.838448
rclavicle -8.12532e-015 8.74653e-015
rhumerus -32.4172 10.2106 -89.0923
rradius 40.7526
rwrist -4.52627
rhand -10.0975 -33.6608
rfingers 7.12502
rthumb 15.8897 -63.0289
lclavicle -8.12532e-015 8.74653e-015
lhumerus -30.4025 1.69852 77.051
lradius 25.4663
lwrist -13.1674
lhand -15.4894 -21.8309
lfingers 7.12502
lthumb 10.6927 7.87699
rfemur 9.24969 7.36831 11.3952
rtibia 51.0475
rfoot 16.9827 2.45667
rtoes 29.8872
lfemur 0.428416 3.92892 -27.5104
ltibia 11.2287
lfoot -9.80663 2.98429
ltoes 4.74578
1711
root 38.113 16.8433 17.4712 236.776 -80.7941 478.02
lowerback 3.64508 2.72264 -8.75915
upperback 1.20255 3.15595 -3.23676
thorax -1.09275 1.52892 1.396
lowerneck -22.1927 0.0506141 2.16095
upperneck 26.6762 -2.39214 4.23338
head 12.622 -0.36721 0.820059
rclavicle -1.04113e-014 2.0276e-014
rhumerus -32.6477 9.78389 -88.9446
rradius 40.202
rwrist -3.5359
rhand -10.5618 -32.9292
rfingers 7.12502
rthumb 15.4426 -62.3323
lclavicle -1.04113e-014 2.0276e-014
lhumerus -29.6937 1.55753 77.5034
lradius 25.5083
lwrist -12.8735
lhand -15.3876 -22.0237
lfingers 7.12502
lthumb 10.7909 7.67908
rfemur 8.03758 6.95592 10.7813
rtibia 52.4926
rfoot 14.66 2.25249
rtoes 28.1104
lfemur 1.13379 4.2036 -27.8762
ltibia 10.8286
lfoot -9.70833 3.09648
ltoes 4.11187
1712
root 38.0056 16.8487 17.5027 233.453 -80.6223 480.989
lowerback 3.7603 2.75808 -8.64848
upperback 1.42528 3.20834 -3.19858
thorax -0.926704 1.54305 1.37281
lowerneck -22.2792 0.174615 2.40604
upperneck 26.5865 -2.22041 3.99004
head 12.5943 -0.297718 0.714782
rclavicle 2.02201e-015 2.26615e-014
rhumerus -32.7157 9.20837 -88.7242
rradius 39.6856
rwrist -2.43708
rhand -10.9636 -32.2729
rfingers 7.12502
rthumb 15.0555 -61.7054
lclavicle 2.02201e-015 2.26615e-014
lhumerus -28.9245 1.446 77.9286
lradius 25.7783
lwrist -12.6905
lhand -15.2043 -21.8953
lfingers 7.12502
lthumb 10.9677 7.7982
rfemur 7.02735 6.7305 10.7363
rtibia 53.9115
rfoot 12.1952 2.31684
rtoes 27.2901
lfemur 2.21615 4.36626 -27.7616
ltibia 10.3381
lfoot -10.1633 3.40232
ltoes 5.46569
1713
root 37.9112 16.8524 17.5452 236.33 -79.8891 478.133
lowerback 3.73012 2.68494 -9.44706
upperback 1.47669 3.06802 -3.46863
thorax -0.869871 1.46041 1.54173
lowerneck -22.8315 0.365215 2.29516
upperneck 26.9147 -1.9941 4.13338
head 12.8393 -0.17459 0.83345
rclavicle 6.45118e-015 -2.38542e-014
rhumerus -32.9967 8.95672 -88.7609
rradius 39.1598
rwrist -3.256
rhand -12.7192 -31.6628
rfingers 7.12502
rthumb 13.3638 -61.2142
lclavicle 6.45118e-015 -2.38542e-014
lhumerus -28.2973 0.248784 78.6475
lradius 26.15
lwrist -11.8612
lhand -15.4889 -21.7688
lfingers 7.12502
lthumb 10.6932 7.93907
rfemur 5.61404 5.79593 9.1661
rtibia 55.263
rfoot 10.1209 3.13786
rtoes 26.986
lfemur 2.63139 4.45816 -29.0697
ltibia 10.0944
lfoot -9.94755 3.27698
ltoes 6.62475
1714
root 37.8186 16.8569 17.5777 235.785 -79.4132 478.496
lowerback 3.97793 2.70667 -9.83326
upperback 1.47362 3.03856 -3.55855
thorax -1.02378 1.44682 1.64958
lowerneck -22.6112 0.516626 2.66285
upperneck 26.7283 -1.78777 3.80783
head 12.7094 -0.0959186 0.679295
rclavicle -1.01722e-014 5.24792e-014
rhumerus -33.3458 8.11419 -88.3972
rradius 38.7563
rwrist -1.45985
rhand -11.5588 -32.387
rfingers 7.12502
rthumb 14.4821 -61.8616
lclavicle -1.01722e-014 5.24792e-014
lhumerus -27.8424 -0.750322 79.3047
lradius 26.4481
lwrist -11.2496
lhand -15.6835 -21.845
lfingers 7.12502
lthumb 10.5055 7.87249
rfemur 4.37556 5.34929 8.48629
rtibia 56.5748
rfoot 7.99532 3.91795
rtoes 26.986
lfemur 3.34306 4.78788 -29.5563
ltibia 9.71173
lfoot -10.5481 3.27834
ltoes 5.40049
1715
root 37.7263 16.8609 17.6084 235.429 -79.0317 478.676
lowerback 4.24766 2.64737 -10.1342
upperback 1.2663 2.88811 -3.60826
thorax -1.38845 1.39034 1.7539
lowerneck -22.0101 0.726212 2.2999
upperneck 26.7631 -1.46881 4.20843
head 12.6049 0.0493816 0.945515
rclavicle -2.18042e-015 3.69739e-014
rhumerus -34.3004 7.87738 -88.4348
rradius 38.3618
rwrist -1.7903
rhand -12.183 -32.2949
rfingers 7.12502
rthumb 13.8806 -61.8117
lclavicle -2.18042e-015 3.69739e-014
lhumerus -27.8953 -1.65059 79.884
lradius 26.8999
lwrist -10.5508
lhand -15.419 -21.8612
lfingers 7.12502
lthumb 10.7606 7.84317
rfemur 3.15902 4.93779 7.95421
rtibia 57.7685
rfoot 5.99336 4.52327
rtoes 27.4845
lfemur 4.07545 5.14411 -29.9304
ltibia 9.23213
lfoot -10.4933 3.24437
ltoes 3.12934
1716
root 37.6288 16.8687 17.6392 237.131 -78.8123 476.75
lowerback 4.42402 2.46203 -10.4522
upperback 1.38453 2.59912 -3.75673
thorax -1.34045 1.23629 1.78897
lowerneck -22.1163 0.89018 2.61512
upperneck 26.731 -1.2474 3.89079
head 12.606 0.139171 0.809149
rclavicle -2.62147e-015 -5.56597e-014
rhumerus -34.5983 7.20577 -88.3364
rradius 37.8581
rwrist -1.46999
rhand -10.907 -33.5977
rfingers 7.12502
rthumb 15.1101 -63.0261
lclavicle -2.62147e-015 -5.56597e-014
lhumerus -27.3661 -2.65014 80.3283
lradius 27.3576
lwrist -9.94982
lhand -15.3086 -21.6736
lfingers 7.12502
lthumb 10.8671 8.02518
rfemur 2.20246 4.22259 7.32633
rtibia 58.6186
rfoot 4.5321 4.67897
rtoes 29.1827
lfemur 4.86797 5.28843 -30.4488
ltibia 8.79395
lfoot -10.4845 2.99671
ltoes 4.23693
1717
root 37.5406 16.8711 17.6697 237.786 -78.3599 476.111
lowerback 4.55484 2.46432 -10.9472
upperback 1.38032 2.5476 -3.85309
thorax -1.42946 1.21018 1.95665
lowerneck -22.0105 1.07876 2.67882
upperneck 26.3824 -0.959767 3.87557
head 12.4417 0.267879 0.83755
rclavicle -7.54139e-015 2.62396e-014
rhumerus -35.1764 6.88778 -88.1452
rradius 37.8013
rwrist -1.479
rhand -10.252 -34.3811
rfingers 7.12502
rthumb 15.7409 -63.761
lclavicle -7.54139e-015 2.62396e-014
lhumerus -26.6191 -3.47845 80.9365
lradius 27.4604
lwrist -9.78547
lhand -15.4977 -21.7031
lfingers 7.12502
lthumb 10.6847 8.0052
rfemur 0.749155 3.78528 6.62616
rtibia 59.517
rfoot 3.4329 4.41408
rtoes 30.9635
lfemur 5.27648 5.53033 -31.0812
ltibia 8.52662
lfoot -10.6468 2.90211
ltoes 2.82435
1718
root 37.451 16.8757 17.6976 239.191 -77.9973 474.7
lowerback 4.6627 2.32435 -11.5584
upperback 1.27905 2.29798 -3.90033
thorax -1.58918 1.09417 2.25141
lowerneck -21.8631 1.2313 2.96201
upperneck 26.4335 -0.744358 3.55654
head 12.4278 0.346985 0.704061
rclavicle 1.41323e-014 3.06128e-014
rhumerus -35.8517 6.45239 -87.951
rradius 37.5027
rwrist -1.15467
rhand -10.2493 -34.1978
rfingers 7.12502
rthumb 15.7436 -63.5775
lclavicle 1.41323e-014 3.06128e-014
lhumerus -26.2251 -3.96265 81.4413
lradius 27.5955
lwrist -9.54135
lhand -15.6161 -22.0441
lfingers 7.12502
lthumb 10.5705 7.67004
rfemur -0.563343 3.21279 5.93993
rtibia 60.1745
rfoot 2.44015 3.79334
rtoes 31.7137
lfemur 5.72039 5.66101 -31.7192
ltibia 8.23534
lfoot -10.4908 2.85176
ltoes 5.25946
1719
root 37.3527 16.8817 17.7249 240.727 -77.8388 473.054
lowerback 4.62298 2.1603 -11.9191
upperback 1.36431 2.06934 -3.95816
thorax -1.45891 0.969158 2.40717
lowerneck -21.6135 1.33513 3.43996
upperneck 26.2718 -0.584784 3.03671
head 12.3095 0.391345 0.44964
rclavicle 1.53996e-014 -1.07344e-014
rhumerus -36.1602 5.66649 -87.6603
rradius 37.026
rwrist -0.59414
rhand -10.3635 -34.0045
rfingers 7.12502
rthumb 15.6335 -63.3928
lclavicle 1.53996e-014 -1.07344e-014
lhumerus -26.004 -5.00447 81.9056
lradius 28.198
lwrist -8.81421
lhand -15.5043 -22.391
lfingers 7.12502
lthumb 10.6783 7.31764
rfemur -1.62273 2.549 5.44561
rtibia 60.5876
rfoot 1.46258 3.15663
rtoes 31.4642
lfemur 6.38308 5.63317 -32.2144
ltibia 7.84096
lfoot -9.92946 2.72997
ltoes 9.09014
1720
root 37.2655 16.8846 17.7503 239.919 -77.3186 473.79
lowerback 4.74609 2.16331 -12.4826
upperback 1.50751 2.02856 -3.97677
thorax -1.38982 0.935871 2.69543
lowerneck -22.1952 1.5293 3.78929
upperneck 26.3298 -0.305505 2.55529
head 12.447 0.497127 0.260986
rclavicle -3.23957e-015 1.07344e-014
rhumerus -36.1731 5.2029 -87.366
rradius 36.5981
rwrist -0.036136
rhand -10.8146 -33.8095
rfingers 7.12502
rthumb 15.1991 -63.2313
lclavicle -3.23957e-015 1.07344e-014
lhumerus -25.8884 -6.13327 82.3313
lradius 29.244
lwrist -7.91474
lhand -15.5592 -22.7333
lfingers 7.12502
lthumb 10.6253 6.97804
rfemur -3.06371 2.4485 4.93983
rtibia 61.1885
rfoot 0.372364 2.96321
rtoes 29.7381
lfemur 6.90144 5.87992 -32.8037
ltibia 7.53783
lfoot -10.8219 2.74883
ltoes 7.11381
